<svg width="100%" height="100%" viewBox="0 0 52 52" fill="none" xmlns="http://www.w3.org/2000/svg">
<ellipse cx="37.5" cy="23.5" rx="9.5" ry="6.5" fill="white"/>
<ellipse cx="37.5" cy="23.5" rx="9.5" ry="6.5" fill="white"/>
<ellipse cx="13.5" cy="23.5" rx="9.5" ry="6.5" fill="white"/>
<ellipse cx="13.5" cy="23.5" rx="9.5" ry="6.5" fill="white"/>
<path d="M20.3405 19.2445C21.4059 19.0481 22.5735 19.7226 23.3581 20.5771C26.3022 23.7835 24.5699 29.8415 20.723 30.0993C19.6526 30.3263 18.3834 29.5727 17.6202 28.6904C14.8292 25.4638 16.4943 19.3683 20.3405 19.2445ZM18.9241 20.2916C17.3091 20.602 17.8268 23.4427 19.3066 23.243C20.828 22.9363 20.2783 20.1076 18.9241 20.2916Z" fill="black"/>
<path d="M43.7089 19.2662C44.7277 19.0393 45.866 19.5248 46.6721 20.3087C49.7513 23.3035 48.3731 29.5079 44.4502 30.1091C43.2524 30.278 42.0627 29.7472 41.157 28.7532C38.3277 25.6483 40.0439 19.5252 43.7089 19.2662ZM42.6525 20.4157C41.1119 20.6465 41.3846 23.6622 42.9558 23.3885C44.5995 23.0907 43.9931 20.0088 42.6525 20.4157Z" fill="black"/>
<path d="M3.78506 24.3179C3.84421 24.4942 3.78519 24.7321 3.78506 24.9182L3.79963 24.895C3.87236 24.7774 3.91531 24.6281 3.99743 24.5207L4.04174 24.5284C3.9056 24.7905 3.82981 25.0842 3.67896 25.3369C3.68966 24.9932 3.70856 24.6545 3.78506 24.3179Z" fill="#FF6969"/>
<path d="M6.27271 18.3785C5.13168 18.4194 4.28294 17.5525 4.83086 16.4822C5.40129 15.3678 6.91941 15.552 7.26214 16.8166C7.2748 17.6663 6.98018 18.0013 6.27271 18.3785Z" fill="#BD0000"/>
<path d="M44.7606 16.8166C45.1545 15.5544 46.6864 15.3431 47.2411 16.5279C47.7228 17.5567 46.9149 18.563 45.7496 18.3786C45.1036 18.004 44.7233 17.6145 44.7606 16.8166Z" fill="#BD0000"/>
<path d="M46.4282 19.3556C46.6065 17.8714 48.131 17.4442 48.906 18.5406C49.6653 19.615 48.6074 21.1566 47.0486 20.4476C46.7254 20.15 46.4933 19.7968 46.4282 19.3556Z" fill="#BD0000"/>
<path d="M47.6848 22.1296C48.2394 19.9484 50.9472 20.8312 50.4544 22.5471C50.112 23.7395 48.7646 23.8743 47.965 22.9614C47.856 22.688 47.7523 22.4166 47.6848 22.1296Z" fill="#BD0000"/>
<path d="M4.04179 23.0385C3.1879 23.8179 1.9624 23.7553 1.60178 22.5607C1.10266 20.9075 3.90606 19.8538 4.34151 22.1295C4.26228 22.4447 4.17816 22.7422 4.04179 23.0385Z" fill="#BD0000"/>
<path d="M5.01642 20.5505C4.55607 20.7316 3.98103 20.7909 3.54272 20.5306C2.0246 19.6287 3.50335 17.0738 5.11072 18.1816C5.47233 18.4309 5.60794 18.8125 5.68258 19.2239C5.60976 19.8391 5.4249 20.1056 5.01642 20.5505Z" fill="#BD0000"/>
<path d="M26.9475 25.397C26.6891 19.3787 31.8653 13.4697 38.0478 13.7515C40.5127 13.8637 43.0871 14.9822 44.7608 16.8166C44.7235 17.6145 45.1038 18.004 45.7498 18.3785C45.9779 18.7004 46.2355 19.0109 46.4283 19.3556C46.4934 19.7968 46.7255 20.15 47.0487 20.4476C47.3128 21.0135 47.5138 21.534 47.6847 22.1296C47.7522 22.4166 47.856 22.6879 47.9649 22.9614C48.1403 23.8761 48.3206 24.4295 48.3171 25.397C46.6842 21.3329 44.2403 19.1871 39.8368 18.3793C39.4121 18.3014 38.5375 18.0058 38.404 18.4704C37.9409 19.0429 37.5802 18.9424 36.9952 18.6108V18.1933C32.5778 18.2773 28.2765 21.0988 26.9475 25.397ZM41.3035 15.4408C40.3157 15.7597 40.6287 17.0482 41.6444 16.9843C42.5861 16.5258 42.3099 15.3162 41.3035 15.4408ZM43.563 17.1426C42.5884 17.2904 42.817 18.6443 43.8175 18.6108C44.7496 18.2986 44.5404 16.951 43.563 17.1426ZM39.0205 14.9069C38.0239 15.1887 38.1604 16.4271 39.2344 16.3816C40.0931 16.0819 39.9407 14.8711 39.0205 14.9069Z" fill="#E70000"/>
<path d="M7.26191 16.8166C9.06903 15.0792 10.7402 13.9937 13.3648 13.7607C18.9611 13.264 23.861 17.6397 24.8621 23.0031C25.0089 23.7896 25.033 24.543 25.0825 25.3369C23.9336 22.3429 22.2339 20.4596 19.2165 19.1154C18.1416 18.6365 16.2206 18.1216 15.0571 18.1933C15.0583 18.2851 15.0635 18.3788 15.0571 18.4704C14.8131 19.157 14.0652 19.3301 13.6828 18.6108C13.6942 18.4692 13.7073 18.3346 13.6828 18.1933C13.6226 18.1432 13.5609 18.1514 13.4854 18.1582C9.7017 18.4996 5.42088 20.8 4.04159 24.5284L3.99729 24.5208C3.91517 24.6281 3.87222 24.7774 3.79949 24.895L3.78491 24.9182C3.78504 24.7321 3.84406 24.4942 3.78491 24.3179C3.78753 23.9388 3.95629 23.421 4.04159 23.0385C4.17797 22.7422 4.26208 22.4447 4.34131 22.1296C4.51697 21.5848 4.77322 21.0674 5.01639 20.5505C5.42486 20.1056 5.60973 19.8391 5.68255 19.2239C5.85243 18.9203 6.03267 18.6316 6.27248 18.3786C6.97995 18.0014 7.27457 17.6663 7.26191 16.8166ZM10.5585 15.4408C10.1091 15.5066 9.91659 15.7707 9.8102 16.188C9.94249 16.6176 10.1687 16.9325 10.6384 16.9843C11.7128 16.4967 11.4117 15.4165 10.5585 15.4408ZM8.17895 17.1426C7.21516 17.5546 7.49764 18.8001 8.47853 18.6108C9.36686 18.2709 9.18737 17.076 8.17895 17.1426ZM12.9127 14.9069C11.9436 15.014 12.1114 16.4171 13.0571 16.3816C13.453 16.2265 13.6267 16.0423 13.6828 15.6302C13.6302 15.1939 13.4025 14.8322 12.9127 14.9069Z" fill="#E70000"/>
</svg>
