<svg width="119" height="100" viewBox="0 0 119 100" fill="none" xmlns="http://www.w3.org/2000/svg">
<path id="Vector 542" d="M37.0846 8.64295C43.9901 17.142 53.8298 28.977 54.7109 40.4321C57.7691 33.2963 80.8897 -12.3731 92.9321 5.55062C100.407 16.6759 89.6395 31.3989 81.9234 38.5767C81.7161 38.7696 75.1834 43.8267 77.3468 43.5863C81.7986 43.0916 86.3217 40.6155 90.582 39.3189C97.1858 37.309 103.848 35.4339 110.187 39.4426C117.289 43.9335 120.081 52.7813 115.197 59.9756C107.876 70.7596 92.7465 70.7597 81.1813 68.8816C75.5513 67.9673 70.6536 65.5347 65.6578 62.9443C62.4762 61.2946 63.6407 65.5712 63.6168 67.6446C63.5026 77.5833 61.8848 89.6657 53.5977 96.3415C44.4377 103.72 36.6 97.1084 36.9609 87.0026C37.2035 80.211 38.1528 73.4546 39.0975 66.7312L39.1256 66.5314C39.1889 66.0807 40.7675 58.1773 39.4967 58.9861C29.7461 65.191 19.9083 70.7066 8.07857 65.9748C-0.291882 62.6266 -0.426681 55.3057 5.91393 49.338C11.4573 44.1207 18.7146 42.8572 26.0141 41.7927C26.6049 41.7066 42.1234 39.6443 41.5376 38.8241C40.6305 37.5541 35.9138 36.7882 34.4252 35.7318C30.635 33.0419 27.567 29.5956 25.8904 25.2178C22.1687 15.5001 24.8464 -6.41954 37.0846 8.64295Z" fill="#AB1212" stroke="#AB1212" stroke-linecap="round"/>
</svg>
