<svg width="259" height="119" viewBox="0 0 259 119" fill="none" xmlns="http://www.w3.org/2000/svg">
    <path d="M1 1C3.04665 21.8177 28.6976 34.5214 46.2496 40.0999C63.0516 45.44 97.5082 43.029 91.9385 17.3738C87.3611 -3.71057 61.297 -2.08832 54.3769 16.9904C49.0471 31.685 53.4243 48.2709 62.1748 60.6903C73.0762 76.1624 90.7386 82.5336 108.907 84.2926C123.114 85.6681 137.822 84.7624 151.631 81.0617C159.746 78.8868 170.381 75.3593 174.091 66.9331C176.905 60.5397 173.406 53.2564 167.116 50.5594C157.675 46.511 143.254 49.9105 136.09 57.1855C131.453 61.8945 131.323 68.7933 133.454 74.7093C139.432 91.3067 155.236 102.655 170.851 109.373C199.194 121.569 229.672 120.144 258 109.428" stroke="#AB1212" stroke-linecap="round" class="svg-elem-1"></path>
</svg>
