<svg width="73" height="50" viewBox="0 0 73 50" fill="none" xmlns="http://www.w3.org/2000/svg">
<g clip-path="url(#clip0_2027_268)">
<path d="M8.27213 15.6436L8.29934 15.6643C8.31656 15.7029 8.27096 17.9915 8.27096 18.3005L8.27213 34.4757L3.9692 34.4719C3.3191 34.4714 2.61538 34.416 1.97077 34.4757C1.30169 34.4745 0.625753 34.4526 -0.0423487 34.4757L-0.0423479 15.6436C2.72791 15.6426 5.50227 15.6813 8.27213 15.6436Z" fill="#E90000"/>
<path d="M30.2697 5.81386C30.8693 5.21934 33.9008 3.65476 34.7742 3.13715L37.3535 1.5804C39.5615 0.222667 41.8609 -0.887117 44.2556 1.16416C45.7715 2.46259 46.3774 4.89468 45.4048 6.69507C44.6016 8.18157 40.3946 12.3497 38.9684 13.9628C38.8044 14.0205 31.176 13.9626 30.2697 13.9628L30.2697 5.81386Z" fill="black"/>
<path d="M44.8505 31.1577C47.5446 31.802 49.5965 34.7182 48.3646 37.427C47.1405 40.4325 45.2546 40.2573 42.7198 40.5591C44.2935 41.1759 45.236 42.0794 45.7982 43.7352C46.3614 46.4734 44.9241 49.2812 42.0452 49.8538C41.1791 50.0262 40.1838 49.9438 39.2988 49.944L25.6718 49.9442C19.0883 49.9438 15.0607 49.9518 9.74658 44.9943C9.29237 44.5706 8.66164 43.6301 8.00313 43.5947L-0.0422712 43.5947L-0.0422708 34.4755C0.625831 34.4524 1.30176 34.4744 1.97084 34.4755C2.61546 34.4158 3.31918 34.4712 3.96928 34.4718L8.27221 34.4755L34.9229 34.4755L34.9229 31.1577L41.5094 31.1548C42.6204 31.1556 43.7411 31.2025 44.8505 31.1577Z" fill="#990000"/>
<path d="M42.7196 40.5591C44.2934 41.1759 45.2359 42.0794 45.7981 43.7352C44.5893 43.7873 43.3593 43.736 42.1478 43.7356L34.9228 43.7352L34.9228 40.5591L42.7196 40.5591Z" fill="#460000"/>
<path d="M44.8505 31.1577C47.5446 31.802 49.5965 34.7182 48.3646 37.427C47.8378 37.3773 47.2865 37.4145 46.7569 37.4196L34.9229 37.427L34.9229 34.4755L34.9229 31.1577L41.5094 31.1548C42.6204 31.1556 43.7411 31.2025 44.8505 31.1577Z" fill="#E90000"/>
<path d="M71.6154 17.3319C71.8279 20.2309 70.3116 21.9252 67.3173 21.6401C65.9625 21.7033 64.5279 21.6982 63.1733 21.6401C61.7803 21.5916 60.3725 21.7131 58.9829 21.6401C58.2541 21.5366 55.9823 21.5998 55.1895 21.6401C53.9494 21.6597 52.6312 21.7309 51.3983 21.6401C50.5698 21.6297 49.741 21.6368 48.9124 21.6401C48.2672 21.7471 47.4686 21.6536 46.8821 21.8039C48.2111 22.2986 49.0882 23.617 49.5292 24.9023C50.0085 27.4364 48.6443 30.1743 46.0388 30.8667C45.6885 30.9599 45.1629 30.9953 44.8506 31.1575C43.7412 31.2023 42.6204 31.1554 41.5095 31.1546L34.923 31.1575L34.923 34.4753L8.2723 34.4753L8.27113 18.3002C8.27113 17.9912 8.31672 15.7025 8.2995 15.664L8.2723 15.6432C8.4541 15.5751 8.57777 15.4133 8.71261 15.2784C12.0375 11.9503 16.3625 9.92972 21.07 9.60232C24.6457 9.35379 23.2316 9.76162 26.5175 7.88862C27.7564 7.18216 29.0193 6.49938 30.27 5.81347L30.27 13.9624C31.1762 13.9622 38.8046 14.0201 38.9686 13.9624C39.0836 14.0127 50.1486 13.9736 51.3983 13.9624C51.7641 13.9139 52.1733 13.9501 52.5443 13.9518L54.833 13.9624C55.3228 13.9775 55.8171 13.9591 56.3077 13.9624C56.6369 13.961 58.4054 14.0442 58.5541 13.9624C58.7617 14.064 61.694 13.9176 62.2829 13.9624C63.0478 14.0086 63.8081 13.8998 64.5803 13.9624C67.831 13.9632 70.9406 13.2779 71.6154 17.3319Z" fill="#FFA2A2"/>
<path d="M46.8819 21.804C48.2109 22.2987 49.088 23.6171 49.5291 24.9024C44.6647 24.8317 39.7884 24.9034 34.9228 24.9024L34.9228 21.804C38.9058 21.7897 42.9011 21.8863 46.8819 21.804Z" fill="#E90000"/>
<path d="M71.6154 17.332C71.8279 20.231 70.3116 21.9253 67.3173 21.6402C65.9625 21.7034 64.5279 21.6983 63.1733 21.6402C61.7803 21.5916 60.3725 21.7132 58.9829 21.6402C58.2541 21.5367 55.9823 21.5999 55.1895 21.6402C53.9494 21.6597 52.6312 21.731 51.3983 21.6402C50.5698 21.6298 49.741 21.6368 48.9124 21.6402C49.0285 21.3089 52.5195 17.6689 52.9703 17.332C53.6083 17.3695 54.2694 17.3339 54.9097 17.3331L62.1173 17.3349C62.7815 17.3382 63.459 17.3715 64.1218 17.332C64.1203 16.2367 64.0725 15.113 64.1357 14.021C64.2355 13.955 64.4555 13.9701 64.5803 13.9625C67.831 13.9633 70.9406 13.2779 71.6154 17.332Z" fill="#FE2F2D"/>
<path d="M71.6154 17.3321C71.8279 20.2311 70.3116 21.9254 67.3173 21.6403C66.2721 21.5569 65.1735 21.6452 64.1218 21.6403L64.1218 17.3321L68.5596 17.3223C69.5762 17.3262 70.5997 17.3665 71.6154 17.3321Z" fill="#E90000"/>
</g>
<defs>
<clipPath id="clip0_2027_268">
<rect width="72.407" height="50" fill="white"/>
</clipPath>
</defs>
</svg>
