<svg width="55" height="55" viewBox="0 0 55 55" fill="none" xmlns="http://www.w3.org/2000/svg">
<path d="M28.4327 3.85526C29.4121 2.73685 31.255 2.12104 32.7008 2.02044C36.7722 1.73717 40.0401 4.42887 41.1986 8.21359C47.1681 8.18538 50.4597 13.6296 48.763 19.1757C51.2081 20.1982 52.5358 23.5901 52.8124 26.1011C52.6746 26.6092 52.7336 27.2164 52.6598 27.7436C52.3237 30.1501 50.8878 31.9724 49.0275 33.3995C50.8096 39.1025 46.615 43.8433 40.8445 44.114C40.4135 50.4961 32.2468 53.4218 27.5476 48.2338C22.746 53.3942 15.2631 50.9442 14.2396 44.114C9.20744 44.1735 5.37608 40.7388 5.93747 35.4688C6.01222 34.768 6.18429 34.0837 6.34627 33.3995C3.165 31.6536 2.02568 27.8255 2.60232 24.3991C2.69175 23.8687 3.16813 23.2388 3.02837 22.7182C3.7916 21.4215 4.73185 19.9984 6.01773 19.1757C4.70265 13.4396 8.18601 8.16817 14.2396 8.21359C14.3215 7.11035 15.0299 5.88794 15.6992 5.03221C18.4572 1.50598 23.3148 1.10547 26.7517 3.85526C27.0426 4.06425 27.2978 4.27654 27.5476 4.53349C27.8214 4.24864 28.0842 4.04002 28.4327 3.85526Z" fill="#E90000"/>
<path d="M13.612 31.2053C13.8276 30.9486 14.0493 30.7369 14.4006 30.7128C15.5568 30.6338 15.1785 32.2244 15.238 32.9354C15.2002 34.955 17.6219 36.594 19.4025 36.8772C20.4214 37.0391 21.3258 36.7022 21.7607 37.8488C21.3422 39.008 20.6186 38.8741 19.5349 38.6888C16.5841 38.1842 13.5514 36.1064 13.612 32.8218C13.5362 32.2727 13.4824 31.7517 13.612 31.2053Z" fill="black"/>
<path d="M40.51 30.8628C41.4839 31.1395 41.4411 31.7312 41.4332 32.644C41.6317 36.2439 38.5478 38.5369 35.1869 38.7095C34.0031 38.7705 33.1115 37.9305 33.9712 37.128C34.6336 36.5095 37.4229 37.6209 39.073 34.8495C39.2476 34.5562 39.5545 34.0832 39.5905 33.7385C39.733 32.5688 39.1508 31.2459 40.51 30.8628Z" fill="black"/>
<path d="M31.7193 10.8054C33.0631 8.4136 35.7663 8.94752 36.9313 11.0827C39.3308 9.2574 41.9907 11.5987 41.199 14.4799C43.0489 15.0894 43.7418 17.0107 42.8188 18.6446C43.9359 18.941 49.4527 21.9408 46.1921 22.8798C45.5854 23.573 45.2315 24.2563 44.9424 25.1276C48.5086 27.3814 48.7874 31.9837 44.5458 32.8274C43.5058 33.0342 42.453 32.8832 41.4334 32.6439C41.4413 31.7312 41.4841 31.1395 40.5102 30.8628C39.151 31.2458 39.7332 32.5688 39.5907 33.7384L39.2722 33.7627C36.919 33.9335 35.2627 31.3294 37.016 29.4715C38.4159 27.9882 41.065 29.4426 40.8055 27.1247C40.5796 25.1083 38.3834 24.4012 36.6469 24.6666C36.91 24.1115 37.4299 23.2683 37.2175 22.6443C37.0685 22.2069 36.4274 21.9143 35.9999 22.0941C35.2953 22.3903 35.2205 23.9465 34.3388 24.8007C33.0726 25.1821 32.1272 24.5873 31.5614 23.4388C31.4611 22.9124 31.4683 22.3206 31.5614 21.7935C32.1594 19.6076 33.7998 20.2626 35.0604 19.0504C36.2976 17.8602 35.9171 15.9865 34.3396 15.3059C32.8552 14.6654 31.4125 14.441 31.4136 12.3909C31.4183 11.8479 31.5232 11.3109 31.7193 10.8054Z" fill="#FEFEFE"/>
<path d="M43.2028 20.529C40.8336 19.6449 39.9797 20.4767 39.0712 20.2717C37.3424 19.882 38.7357 17.2308 42.8184 18.6448C43.9355 18.9412 49.4524 21.941 46.1918 22.88C45.6425 22.5177 45.2986 21.9396 44.7662 21.5523C44.0986 21.9366 43.3642 23.0993 42.6521 23.1265C42.201 23.1435 41.8209 22.6277 41.8222 22.2073C41.8242 21.5807 42.7909 20.9279 43.2028 20.529Z" fill="black"/>
<path d="M18.2988 11.0829C19.4887 8.50241 22.0235 8.68822 23.6308 10.8056C23.7953 11.3446 23.8831 11.8288 23.9025 12.3912C23.835 14.5525 22.4766 14.6726 20.9477 15.2731C19.4363 15.8666 18.7019 17.7519 19.8756 19.0198C21.0834 20.3246 22.4854 19.2896 23.3007 21.7937C23.3904 22.3092 23.3935 22.9246 23.3007 23.439C22.7849 24.6156 21.8905 25.0411 20.671 24.8009L20.5786 24.7166C19.6567 23.8816 19.8189 23.3005 19.3208 22.3202C18.8656 21.4244 16.7698 22.1162 18.2988 24.4422C16.2789 24.8011 13.0149 26.5058 15.2379 28.7896C18.8085 27.7686 19.9513 32.488 16.9729 33.1633C16.2865 33.319 15.8735 33.1045 15.2379 32.935C15.1784 32.224 15.5567 30.6334 14.4004 30.7124C14.0491 30.7364 13.8275 30.9482 13.6119 31.2049C13.4822 31.7513 13.536 32.2723 13.6119 32.8214C12.3269 32.8943 10.2158 32.9104 9.10802 32.2139C6.43159 30.5308 7.0771 26.2585 10.3425 25.613C10.4242 25.3456 10.4905 25.071 10.5638 24.8009C9.53187 24.4312 9.06376 23.8616 9.11059 22.7182C8.55194 22.9182 7.90735 22.8892 7.68698 22.247C7.18453 20.7839 10.9951 19.06 12.3304 18.6448C11.0174 16.9106 11.8922 14.8035 13.9019 14.259C12.7425 11.6588 16.0376 9.42775 18.2988 11.0829Z" fill="#FEFEFE"/>
<path d="M12.3304 18.6449C13.4063 18.3782 15.6887 18.1571 16.6554 18.7538C17.3551 19.1857 17.1712 20.2793 16.3285 20.3981C14.7907 20.6152 14.2596 19.5488 11.4577 20.7805C12.0059 21.033 13.001 21.3882 13.2069 22.0061C13.3558 22.4533 13.0132 22.9971 12.5693 23.1098C11.4052 23.4057 10.4816 21.0438 9.11055 22.7183C8.55191 22.9183 7.90732 22.8893 7.68694 22.2471C7.18449 20.784 10.9951 19.0601 12.3304 18.6449Z" fill="black"/>
<path d="M28.4331 3.85522L28.4309 8.50305C28.4305 9.26444 28.3914 10.0464 28.4331 10.8055L30.5578 10.8112C30.9367 10.8138 31.3431 10.8502 31.7192 10.8055C31.523 11.3111 31.4182 11.8481 31.4134 12.3911C31.4123 14.4411 32.855 14.6655 34.3394 15.3061C35.9169 15.9867 36.2974 17.8604 35.0602 19.0506C33.7997 20.2628 32.1592 19.6078 31.5612 21.7937C31.4681 22.3207 31.461 22.9126 31.5612 23.4389C32.1271 24.5875 33.0724 25.1823 34.3387 24.8009C35.2203 23.9467 35.2951 22.3905 35.9997 22.0943C36.4273 21.9145 37.0684 22.2071 37.2173 22.6445C37.4298 23.2685 36.9099 24.1116 36.6467 24.6668C34.2151 27.7274 32.6203 28.5705 28.4331 28.6104C28.3851 29.5626 28.431 30.5318 28.4316 31.4862L28.4331 37.2523C30.9244 37.4038 34.7785 40.1491 34.7515 42.7888C34.7458 43.3329 33.9763 43.6344 33.5169 43.5557C32.9158 43.4526 32.458 39.5587 28.4331 38.9633V48.2338C27.8724 48.2206 27.3126 48.2266 26.752 48.2338V38.9633C21.376 39.7877 22.6138 43.2358 21.3628 43.4233C18.9609 43.7832 21.0109 40.188 21.74 39.3921C23.073 37.9367 24.8215 37.3305 26.752 37.2523V28.6104C23.734 28.6436 19.4472 27.6547 18.2989 24.4422C16.7698 22.1162 18.8656 21.4244 19.3208 22.3202C19.8189 23.3005 19.6567 23.8815 20.5786 24.7166L20.671 24.8009C21.8906 25.0411 22.7849 24.6156 23.3008 23.4389C23.3935 22.9246 23.3904 22.3092 23.3008 21.7937C22.4854 19.2895 21.0834 20.3245 19.8756 19.0197C18.702 17.7519 19.4363 15.8666 20.9477 15.273C22.4766 14.6725 23.835 14.5524 23.9026 12.3911C23.8831 11.8288 23.7953 11.3445 23.6308 10.8055C23.9367 10.7828 24.2627 10.8087 24.571 10.8085L26.752 10.8055C26.7512 8.48983 26.7823 6.17051 26.752 3.85522C27.0429 4.06421 27.2981 4.2765 27.5479 4.53346C27.8217 4.24861 28.0845 4.03999 28.4331 3.85522Z" fill="black"/>
<path d="M28.4329 23.4393C29.4754 23.4456 30.5189 23.4026 31.561 23.4393C32.1269 24.5878 33.0723 25.1827 34.3385 24.8012C33.5163 26.4201 30.0317 26.8292 28.4329 26.8103V23.4393Z" fill="#990000"/>
<path d="M23.3007 23.439H26.7519V26.8099C24.916 26.8893 21.7689 26.529 20.6709 24.8009C21.8905 25.0411 22.7848 24.6156 23.3007 23.439Z" fill="#990000"/>
<path d="M28.4329 12.3914H31.4132C31.4121 14.4414 32.8548 14.6658 34.3392 15.3063C35.9167 15.9869 36.2972 17.8606 35.06 19.0508C33.7995 20.2631 32.159 19.608 31.561 21.7939H28.4329V12.3914Z" fill="#990000"/>
<path d="M23.9025 12.3912C24.8519 12.3646 25.8023 12.3949 26.7519 12.3912V21.7938C25.7231 21.7956 24.2568 21.6432 23.3007 21.7938C22.4853 19.2896 21.0834 20.3246 19.8756 19.0198C18.7019 17.7519 19.4363 15.8666 20.9477 15.2731C22.4765 14.6726 23.8349 14.5525 23.9025 12.3912Z" fill="#990000"/>
</svg>
