<svg width="100%" height="100%" viewBox="0 0 60 57" fill="none" xmlns="http://www.w3.org/2000/svg">
<g>
<path d="M7.81413 28.6624C9.93066 28.744 12.0824 28.6663 14.2016 28.666L26.7283 28.663C28.7231 28.6617 30.756 28.5511 32.7452 28.6624C32.7392 29.9439 32.5632 32.1108 32.7452 33.2989C33.8987 34.6858 35.2477 34.8698 36.7008 33.8031C36.708 35.5254 36.7192 37.2503 36.7008 38.9728C38.3256 40.2175 37.9356 41.9 36.7008 43.3092V51.7948C30.1004 52.5471 23.0761 50.2565 17.6773 46.5563C15.8659 46.9927 13.989 47.2191 12.1515 47.5282L0.00952148 49.516C3.74957 46.165 8.04944 43.3672 11.9745 40.233C9.55679 36.2004 8.48519 33.3522 7.81413 28.6624ZM36.7008 43.3092C37.9356 41.9 38.3256 40.2175 36.7008 38.9728C33.5456 36.4604 30.0833 41.1259 33.0562 43.2704C34.238 44.1228 35.5078 43.9675 36.7008 43.3092Z" fill="black"/>
<path d="M7.81393 28.6625C6.87563 4.35597 34.3668 -9.20994 51.8161 7.0259C66.7493 20.9208 60.407 45.8505 40.5933 51.0499C39.3348 51.38 37.9193 51.3879 36.7006 51.795V43.3094C37.9354 41.9002 38.3254 40.2177 36.7006 38.973C36.719 37.2504 36.7078 35.5256 36.7006 33.8033C35.2475 34.87 33.8985 34.686 32.745 33.2991C32.563 32.111 32.739 29.9441 32.745 28.6625C30.7558 28.5513 28.7229 28.6619 26.7281 28.6632L14.2014 28.6662C12.0822 28.6665 9.93046 28.7442 7.81393 28.6625ZM24.1906 20.178H28.6356C28.3464 16.5488 30.221 13.0152 34.2984 12.9915C40.6121 12.9546 42.1974 21.9246 36.4317 24.1873C33.1228 25.4856 32.7664 24.1293 32.745 28.6625C32.739 29.9441 32.563 32.111 32.745 33.2991C33.8985 34.686 35.2475 34.87 36.7006 33.8033C37.238 32.2509 36.9635 30.292 36.9965 28.6625C38.7128 27.8845 40.1978 27.2401 41.5695 25.8861C45.5172 21.9888 45.276 15.4526 41.3961 11.6042C34.5686 4.83197 24.0152 10.0742 24.1906 20.178Z" fill="#E90000"/>
</g>
</svg>
