<svg width="75" height="48" viewBox="0 0 75 48" fill="none" xmlns="http://www.w3.org/2000/svg">
<g clip-path="url(#clip0_2027_343)">
<path d="M20.1178 38.897C19.8857 38.8982 19.6535 38.9008 19.4215 38.897C19.5337 38.9344 19.6402 38.9662 19.7564 38.9905L19.8277 39.0647C19.795 39.694 18.5795 39.4345 18.184 39.5131C18.8878 39.5307 19.5964 39.5134 20.3006 39.5131C20.2203 39.443 20.1336 39.4489 20.0406 39.4055L20.0478 39.328C20.1484 39.2649 20.2433 39.2018 20.3372 39.1288L20.3333 39.0367C20.2619 38.9601 20.2113 38.9421 20.1178 38.897Z" fill="#FEFEFE"/>
<path d="M64.957 6.46777H56.0805V8.14648L56.0741 10.7366C56.071 11.1859 56.0249 11.6841 56.0805 12.1267C58.7024 8.75363 62.2131 9.31051 64.957 12.2698C64.8259 11.2165 64.9584 9.28484 64.957 8.14648C64.8505 7.57063 64.8901 7.04275 64.957 6.46777Z" fill="black"/>
<path d="M64.9572 12.2698C62.2133 9.31052 58.7026 8.75365 56.0806 12.1267C54.6865 14.401 54.9015 16.2294 56.0806 18.4627C58.8748 21.5336 62.3557 21.4436 64.9572 18.2448C66.429 15.2792 65.7157 14.7805 64.9572 12.2698Z" fill="#FDC102"/>
<path d="M60.7211 11.9028C60.0832 11.5762 59.0461 12.0121 58.5087 12.3667C55.9537 14.0533 56.7836 18.0681 60.0422 18.6783C65.0278 18.975 64.8553 11.8412 60.7211 11.9028Z" fill="#990000"/>
<path d="M73.9721 8.14648H64.9568C64.9582 9.28484 64.8257 11.2165 64.9568 12.2698C65.7153 14.7805 66.4287 15.2792 64.9568 18.2448C64.9378 18.9301 64.9505 19.6166 64.9568 20.3021C65.4012 20.2731 65.8639 20.3 66.3098 20.3005L72.1475 20.3007C72.7555 20.2979 73.3647 20.2729 73.9721 20.3021C74.0735 19.8544 73.9698 18.0322 73.9705 17.4365L73.9721 8.14648Z" fill="#E90000"/>
<path d="M73.9724 20.3021C73.365 20.2729 72.7558 20.2979 72.1478 20.3007L66.31 20.3005C65.8641 20.3 65.4015 20.2731 64.9571 20.3021V34.3648C67.6825 34.1946 71.2187 34.318 73.9724 34.3648L73.9731 24.5507C73.9736 23.1429 73.8934 21.7047 73.9724 20.3021Z" fill="#FFA2A2"/>
<path d="M18.1842 39.5132L13.3546 39.5118C11.3104 39.5106 9.0569 39.1789 7.47557 40.7567C5.28586 42.9415 6.0832 47.0887 9.26414 47.8456C10.6205 48.1683 20.088 48.1516 21.3148 47.9017C21.6449 47.7631 21.9738 47.6236 22.2864 47.4485C25.4763 45.6612 24.8494 40.7781 21.4296 39.7567C21.0599 39.6463 20.6671 39.6319 20.3007 39.5132C19.5966 39.5136 18.888 39.5308 18.1842 39.5132Z" fill="#E90000"/>
<path d="M64.957 18.2446C62.3555 21.4435 58.8747 21.5335 56.0804 18.4626V20.302V34.4993C56.0569 34.9185 56.0595 35.3288 56.0804 35.7482C59.0357 35.7479 62.0034 35.8075 64.957 35.7482C64.9649 35.2868 64.9621 34.8261 64.957 34.3646V20.302C64.9507 19.6164 64.938 18.93 64.957 18.2446Z" fill="black"/>
<path d="M17.8911 20.749L9.08529 20.7497C7.85518 20.7483 5.48934 20.6251 4.38192 20.8647C1.06158 21.5826 -0.484062 25.8134 2.01836 28.2449C3.73645 29.9139 6.2285 29.4922 8.4117 29.4894L16.6518 29.4896C16.6699 29.4896 16.688 29.4887 16.7061 29.4883C18.401 28.4783 20.0301 27.7579 20.1177 25.4343C18.8635 23.2456 18.7754 23.4291 17.8911 20.749Z" fill="#E90000"/>
<path d="M19.4216 30.0205L12.0277 30.0212C10.879 30.0214 8.96686 29.8957 7.88159 30.1306C3.25485 31.1318 3.35469 37.7162 7.90672 38.7565C10.1882 39.278 16.7529 38.828 19.4216 38.897C19.6537 38.9008 19.8859 38.8982 20.1179 38.897C26.1449 37.1938 24.762 30.1735 19.4216 30.0205Z" fill="#E90000"/>
<path d="M23.8286 8.2622C20.465 8.37277 17.0832 8.20666 13.7159 8.2622C13.466 8.61377 10.6986 8.76318 9.89232 11.9028C9.47765 11.8995 5.85111 11.8664 5.78238 11.9028C2.02769 12.0311 0.257927 16.6709 3.01804 19.1021C4.37789 20.2999 6.10547 20.1389 7.79068 20.1394L15.7905 20.1382C16.4447 20.1385 17.1305 20.1805 17.7816 20.1375C17.3864 17.8866 17.7696 15.5564 18.7308 13.4996C18.9758 12.9756 19.3548 12.5022 19.5789 11.9703L19.6065 11.9028C21.1965 10.1853 21.6384 9.58812 23.8286 8.2622Z" fill="#E90000"/>
<path d="M23.8286 8.2622C20.465 8.37277 17.0832 8.20666 13.7159 8.2622C13.466 8.61377 10.6986 8.76318 9.89232 11.9028C9.47765 11.8995 5.85111 11.8664 5.78238 11.9028H19.6065C21.1965 10.1853 21.6384 9.58812 23.8286 8.2622Z" fill="#FFA2A2"/>
<path d="M56.0806 8.14676C49.2479 7.99436 46.8104 7.02141 41.3341 3.61248C36.4926 0.598889 31.9145 0.312364 26.498 0.312539L15.8848 0.310078C15.0172 0.308496 14.0245 0.206017 13.1852 0.437521C9.29639 1.51031 9.23574 7.11967 13.7159 8.26242C17.0831 8.20687 20.465 8.37299 23.8286 8.26242C24.5662 7.98064 25.2941 7.66828 26.0615 7.47439C33.9752 5.47348 41.4921 12.4741 40.0119 20.3024H56.0806V18.463C54.9014 16.2297 54.6864 14.4012 56.0806 12.127C56.025 11.6844 56.0711 11.1862 56.0742 10.7369L56.0806 8.14676Z" fill="#E90000"/>
<path d="M40.0119 20.3022C41.4921 12.4739 33.9752 5.47325 26.0615 7.47417C25.2941 7.66805 24.5662 7.98042 23.8286 8.2622C21.6383 9.58811 21.1964 10.1852 19.6065 11.9028L19.5789 11.9703C19.3548 12.5022 18.9758 12.9756 18.7307 13.4996C17.7696 15.5564 17.3864 17.8866 17.7815 20.1375C17.8133 20.3424 17.8408 20.5477 17.8914 20.7492C18.7757 23.4293 18.8638 23.2458 20.118 25.4344C20.0305 27.7581 18.4013 28.4784 16.7064 29.4885C17.2157 29.4593 19.4634 29.605 19.7875 29.901L19.7752 29.9624C19.6557 30.0018 19.546 30.0114 19.4217 30.0206C24.7621 30.1735 26.145 37.1939 20.118 38.897C20.2115 38.9422 20.2621 38.9601 20.3335 39.0367L20.3374 39.1289C20.2435 39.2018 20.1486 39.2649 20.048 39.328L20.0408 39.4055C20.1338 39.449 20.2205 39.443 20.3008 39.5131C20.6671 39.6318 21.06 39.6462 21.4297 39.7566C24.8495 40.778 25.4763 45.6611 22.2864 47.4484C21.9739 47.6235 21.645 47.7631 21.3149 47.9016C22.1251 48.2057 26.5263 47.9877 27.6284 47.8879C33.9008 47.3201 40.2221 45.3622 44.8963 40.9693C45.5812 40.3256 46.1742 39.6026 46.8426 38.946C49.0539 36.7737 52.8879 34.7111 56.0806 34.4995V20.3022H40.0119ZM40.0119 20.3022C39.863 21.0425 39.7058 21.7759 39.4487 22.4883C36.4836 30.7021 25.3215 31.9229 20.118 25.4344C18.8638 23.2458 18.7757 23.4293 17.8914 20.7492C17.8408 20.5477 17.8133 20.3424 17.7815 20.1375C17.3864 17.8866 17.7696 15.5564 18.7307 13.4996C18.9758 12.9756 19.3548 12.5022 19.5789 11.9703L19.6065 11.9028C21.1964 10.1852 21.6383 9.58811 23.8286 8.2622C24.5662 7.98042 25.2941 7.66805 26.0615 7.47417C33.9752 5.47325 41.4921 12.4739 40.0119 20.3022Z" fill="#FFA2A2"/>
<path d="M40.012 20.3022C41.4922 12.4739 33.9753 5.47325 26.0616 7.47417C25.2941 7.66805 24.5662 7.98042 23.8287 8.2622C21.6384 9.58811 21.1965 10.1852 19.6066 11.9028L19.579 11.9703C19.3549 12.5022 18.9759 12.9756 18.7308 13.4996C17.7697 15.5564 17.3864 17.8866 17.7816 20.1375C17.8134 20.3424 17.8408 20.5477 17.8915 20.7492C18.7758 23.4293 18.8639 23.2458 20.1181 25.4344C25.3216 31.9229 36.4837 30.7021 39.4488 22.4883C39.7059 21.7759 39.8631 21.0425 40.012 20.3022ZM30.0668 9.811C30.6924 9.99645 31.3317 10.1265 31.9448 10.3521C36.1685 11.9067 38.4851 16.6035 37.1756 20.9193C34.4216 29.9961 21.7778 28.0277 20.4691 19.8256C20.3872 19.5699 20.3248 19.3078 20.3009 19.04C20.3387 18.7766 20.3136 18.5097 20.3009 18.2448C20.4932 18.2626 20.6736 18.2589 20.866 18.2448H20.3009C20.3018 17.9836 20.2425 17.7134 20.3009 17.4563C20.7695 15.8974 20.9444 14.8166 21.9452 13.4203C23.2916 11.5421 25.503 10.1939 27.7913 9.811C28.0024 9.75651 28.2707 9.80046 28.4886 9.811H29.3116C29.5626 9.80626 29.8165 9.79255 30.0668 9.811Z" fill="#990000"/>
<path d="M30.0666 9.81092C29.8163 9.79246 29.5625 9.80617 29.3114 9.81092H28.4884C28.2705 9.80037 28.0022 9.75642 27.7911 9.81092C25.5028 10.1938 23.2915 11.542 21.945 13.4202C20.9443 14.8165 20.7694 15.8973 20.3007 17.4562C20.2424 17.7133 20.3016 17.9835 20.3007 18.2447H20.8659C20.6734 18.2588 20.493 18.2625 20.3007 18.2447C20.3134 18.5096 20.3385 18.7765 20.3007 19.04C20.3246 19.3077 20.387 19.5698 20.4689 19.8255H27.5285C29.8272 21.6603 32.1895 18.373 30.0666 16.7443V9.81092ZM27.7911 9.81092L27.7932 14.2067C27.7948 14.977 27.8335 15.7506 27.7911 16.52C27.4819 16.8269 27.1653 17.1289 26.8774 17.4562H20.3007C20.7694 15.8973 20.9443 14.8165 21.945 13.4202C23.2915 11.542 25.5028 10.1938 27.7911 9.81092Z" fill="black"/>
<path d="M29.1086 17.5881C27.9573 17.4625 27.5461 18.6533 28.4887 19.2267C29.6761 19.4079 30.2185 18.1031 29.1086 17.5881Z" fill="#FDC102"/>
<path d="M26.8774 18.2446H20.8659C20.6734 18.2587 20.4931 18.2624 20.3008 18.2446C20.3134 18.5095 20.3386 18.7764 20.3008 19.0399H26.8774V18.2446Z" fill="#E90000"/>
<path d="M29.3115 9.81079H28.4885V16.2621C28.7619 16.2825 29.0378 16.2679 29.3115 16.2621C29.3486 14.1143 29.3121 11.9594 29.3115 9.81079Z" fill="#E90000"/>
</g>
<defs>
<clipPath id="clip0_2027_343">
<rect width="75" height="48" fill="white" transform="matrix(-1 0 0 1 75 0)"/>
</clipPath>
</defs>
</svg>
