<svg width="197" height="196" viewBox="0 0 197 196" fill="none" xmlns="http://www.w3.org/2000/svg">
<g clip-path="url(#clip0_2027_432)">
<path d="M72.5764 71.2649C69.8718 69.9065 64.5285 62.391 62.975 59.923C61.0717 56.8995 59.7227 54.2073 61.9075 50.7946C64.2421 47.1476 69.4636 46.6368 72.4082 49.7562C74.8408 52.3332 81.0077 61.76 81.6447 64.8646L81.5917 64.799C80.7454 63.7319 80.114 62.199 78.561 62.0439C76.4417 61.8327 71.1492 65.2348 70.9096 67.6631C70.7659 69.1199 71.8931 70.1319 72.5764 71.2649Z" fill="#C40000"/>
<path d="M68.3202 83.0732C64.2811 83.36 54.0765 80.7633 50.5706 78.5707C45.5464 75.4283 47.1277 67.2884 52.9626 66.0821C56.7661 65.2958 69.4081 69.7406 73.3079 72.3011C70.9899 72.6514 68.1614 70.8197 66.3505 73.1092C64.832 75.0294 63.2123 80.1988 65.6235 82.0914C66.5506 82.8193 67.6847 82.6155 68.3202 83.0732Z" fill="#C40000"/>
<path d="M101.482 74.1434C104.575 71.461 117.625 69.8253 121.323 70.0899C127.376 70.523 129.806 78.3321 125.695 81.7809C122.138 84.764 111.986 85.3592 107.178 84.542C107.722 84.2084 108.41 83.9193 108.819 83.422C110.426 81.4725 109.117 75.338 107.277 73.9189C105.969 72.91 103.019 73.959 101.482 74.1434Z" fill="#C40000"/>
<path d="M82.3758 65.901C81.8019 61.2296 80.4465 48.212 83.5554 44.1756C87.5597 38.9767 95.659 41.3063 96.3173 47.6046C96.9395 53.5584 95.4873 58.7457 94.1471 64.3602C93.8936 63.6154 94.1241 62.7773 93.8951 62.0126C93.1062 59.3763 87.5418 58.9424 85.4771 59.5566C82.5578 60.4249 83.5577 63.8108 82.3758 65.901Z" fill="#C40000"/>
<path d="M104.809 85.6139C110.096 88.2062 120.06 91.6618 121.974 97.2743C123.089 100.544 120.959 105.167 117.631 106.274C113.379 107.687 105.929 102.096 102.739 99.6834L99.8432 97.4712C99.4321 97.1522 99.0216 96.7583 98.5862 96.4824C98.1184 95.8866 97.7006 95.2643 97.2816 94.634C98.6588 95.3091 100.464 97.3697 102.065 96.1638C103.493 95.0883 106.49 90.5304 106.712 88.7833C106.884 87.419 105.511 86.5853 104.809 85.6139Z" fill="#C40000"/>
<path d="M95.7279 63.729C98.1097 59.8093 102.462 53.2652 106.241 50.6906C112.5 46.4269 120.645 53.8723 116.714 60.1076C113.506 65.1979 107.84 70.0908 102.629 73.158C102.268 73.3704 101.902 73.6342 101.516 73.7927C102.139 72.0147 104.895 71.1553 104.695 68.7802C104.507 66.5407 99.3006 61.3499 96.6651 63.138C96.3473 63.3536 96.113 63.6852 95.7279 63.729Z" fill="#C40000"/>
<path d="M84.5507 100.778C84.4214 99.6681 84.2698 98.3376 84.6124 97.2697C84.9252 97.7248 84.869 99.7585 85.0173 100.448C86.1425 103.896 89.3312 103.269 92.2205 102.277C95.9898 100.982 95.2993 98.9031 94.5646 95.718C95.6591 97.2426 96.7187 99.0294 97.3288 100.807C97.4337 101.304 98.1465 102.835 98.3667 103.495C99.6557 107.352 102.764 115.516 99.5534 119.125C96.0726 123.039 89.0088 121.813 86.97 117.008C85.4791 113.494 84.7102 104.497 84.5507 100.778Z" fill="#C40000"/>
<path d="M73.3338 93.8449C69.3814 96.666 61.3995 101.657 56.4229 102.385C49.9802 103.328 45.5638 96.4699 49.3618 91.4779C52.0336 87.9659 62.785 84.5279 67.0559 83.9655C66.1005 84.554 65.1703 85.0271 64.8857 86.2136C64.3131 88.6 65.5866 93.4177 68.4142 94.061C70.3386 94.4987 73.5621 93.2289 75.0661 91.8881C75.5109 91.5893 75.9516 91.2903 76.3763 90.9634C77.5059 90.1715 78.8042 89.3957 79.7853 88.429C80.7303 89.1855 81.7883 89.8082 82.9559 90.152C84.0646 90.4305 85.1443 90.571 86.2804 90.682C86.3833 91.9279 85.9921 95.2842 86.3298 96.0576C85.727 96.1753 85.1022 96.0809 84.5232 96.2015L84.487 96.3156C84.0725 97.0952 83.6462 99.2319 83.2561 100.306C82.6311 102.959 81.5405 105.491 80.5729 108.035C78.9943 112.184 77.6846 118.091 72.573 119.067C67.4819 120.039 63.312 115.696 64.3069 110.608C65.0178 106.972 68.3568 100.812 70.3421 97.8532C71.2584 96.4874 72.3542 95.2571 73.2884 93.9112L73.3338 93.8449ZM76.3763 90.9634C75.9516 91.2903 75.5109 91.5893 75.0661 91.8881L75.236 92.1289C74.0839 93.2837 72.9433 96.2835 72.9402 97.8999C72.9346 100.836 77.4636 102.765 79.8796 102.734C82.5275 102.699 82.0487 101.485 83.2561 100.306C83.6462 99.2319 84.0725 97.0952 84.487 96.3156L84.5232 96.2015C85.1022 96.0809 85.727 96.1753 86.3298 96.0576C85.9921 95.2842 86.3833 91.9279 86.2804 90.682C85.1443 90.571 84.0646 90.4305 82.9559 90.152C81.7883 89.8082 80.7303 89.1855 79.7853 88.429C78.8042 89.3957 77.5059 90.1715 76.3763 90.9634Z" fill="#C40000"/>
<path d="M76.3767 90.9631C77.5064 90.1712 78.8046 89.3954 79.7858 88.4286C80.7307 89.1851 81.7887 89.8079 82.9563 90.1517C84.0651 90.4302 85.1448 90.5707 86.2808 90.6817C86.3837 91.9276 85.9925 95.2838 86.3302 96.0572C85.7274 96.175 85.1026 96.0806 84.5236 96.2012L84.4875 96.3152C84.0729 97.0949 83.6466 99.2316 83.2566 100.306C82.0491 101.485 82.528 102.699 79.8801 102.733C77.464 102.765 72.935 100.836 72.9407 97.8995C72.9437 96.2832 74.0843 93.2834 75.2365 92.1286L75.0665 91.8878C75.5113 91.589 75.952 91.29 76.3767 90.9631ZM76.3767 90.9631C75.952 91.29 75.5113 91.589 75.0665 91.8878L75.2365 92.1286C76.2543 92.5909 77.0257 93.5617 78.0458 94.0718C78.8553 94.6127 79.6705 94.9797 80.618 95.2045C81.5661 95.6815 84.2282 96.0296 84.4702 96.2504L84.4875 96.3152L84.5236 96.2012C85.1026 96.0806 85.7274 96.175 86.3302 96.0572C85.9925 95.2838 86.3837 91.9276 86.2808 90.6817C85.1448 90.5707 84.0651 90.4302 82.9563 90.1517C81.7887 89.8079 80.7307 89.1851 79.7858 88.4286C78.8046 89.3954 77.5064 90.1712 76.3767 90.9631Z" fill="black"/>
<path d="M76.3765 90.9633C77.5062 90.1714 78.8044 89.3955 79.7856 88.4288C80.7305 89.1853 81.7885 89.808 82.9562 90.1519C84.0649 90.4304 85.1446 90.5708 86.2806 90.6819C86.3835 91.9277 85.9923 95.284 86.33 96.0574C85.7272 96.1751 85.1024 96.0807 84.5235 96.2014L84.4873 96.3154L84.47 96.2505C84.228 96.0298 81.5659 95.6816 80.6178 95.2046C79.6704 94.9799 78.8552 94.6129 78.0456 94.072C77.0255 93.5619 76.2542 92.5911 75.2363 92.1288L75.0663 91.888C75.5112 91.5892 75.9518 91.2902 76.3765 90.9633ZM75.0663 91.888L75.2363 92.1288C76.2542 92.5911 77.0255 93.5619 78.0456 94.072L78.098 93.9344C77.9836 92.8693 77.0604 91.7489 76.3765 90.9633C75.9518 91.2902 75.5112 91.5892 75.0663 91.888Z" fill="#FEFEFE"/>
<path d="M82.9562 90.1518C84.0649 90.4303 85.1446 90.5708 86.2806 90.6818C86.3835 91.9277 85.9923 95.2839 86.33 96.0574C85.7272 96.1751 85.1024 96.0807 84.5235 96.2013L84.4873 96.3154L84.47 96.2505C84.228 96.0297 81.5659 95.6816 80.6178 95.2046C81.2905 93.5112 82.1619 91.7956 82.9562 90.1518Z" fill="#FBB3AA"/>
<path d="M72.5763 71.265C71.893 70.132 70.7658 69.12 70.9095 67.6632C71.1491 65.2349 76.4416 61.8327 78.5609 62.044C80.1139 62.1991 80.7453 63.732 81.5916 64.7991L81.6446 64.8647C81.7195 65.0146 82.4064 66.8262 82.376 65.9009C83.5578 63.8107 82.558 60.4248 85.4772 59.5565C87.542 58.9424 93.1064 59.3762 93.8953 62.0125C94.1242 62.7772 93.8938 63.6153 94.1472 64.3601C94.119 64.9837 94.0982 65.6072 94.0211 66.2272C94.5786 65.3875 95.1355 64.5449 95.7278 63.7292C96.1129 63.6854 96.3472 63.3538 96.665 63.1382C99.3005 61.3501 104.507 66.5409 104.695 68.7805C104.895 71.1555 102.139 72.0149 101.516 73.7929C101.084 74.0856 100.633 74.3674 100.231 74.6994C100.668 74.5521 101.088 74.388 101.481 74.1436C103.019 73.9592 105.969 72.9102 107.277 73.9191C109.117 75.3382 110.426 81.4728 108.819 83.4222C108.41 83.9195 107.722 84.2086 107.178 84.5422C105.172 84.7599 103.109 84.0866 101.098 84.2171C102.347 84.655 103.566 85.1599 104.809 85.6141C105.511 86.5855 106.884 87.4192 106.711 88.7835C106.49 90.5306 103.493 95.0885 102.065 96.164C100.464 97.3699 97.8857 96.5454 97.2814 94.6342C97.6861 95.2746 98.1182 95.8868 98.586 96.4826C99.431 98.6103 101.267 101.46 102.475 103.535C108.753 114.327 114.597 122.396 123.047 131.422C124.179 132.632 126.08 134.878 127.403 135.717C128.287 137.09 129.721 138.216 130.909 139.334L135.73 143.843C135.618 144.181 133.663 145.335 133.249 145.595C130.364 142.593 126.967 139.68 123.971 136.664C123.486 136.065 122.912 135.519 122.379 134.961C112.795 124.907 106.319 116.329 99.479 104.285C98.8027 103.094 98.1616 101.898 97.329 100.807C96.7189 99.0293 96.6988 96.4207 97.2814 94.6342C97.561 98.6098 95.99 100.982 92.2207 102.277C89.3314 103.269 86.1427 103.895 85.0175 100.448C84.8692 99.7583 84.9254 97.7247 84.6126 97.2696C84.5837 96.9467 84.5478 96.6345 84.4872 96.3155L84.5234 96.2014C85.1024 96.0808 85.7272 96.1752 86.33 96.0575C85.9923 95.2841 86.3835 91.9278 86.2806 90.6819C85.1445 90.5709 84.0649 90.4305 82.9561 90.152C81.7885 89.8081 80.7305 89.1854 79.7855 88.4289C78.8044 89.3956 77.5061 90.1714 76.3765 90.9634C75.9518 91.2902 75.5111 91.5892 75.0663 91.8881C73.5623 93.2288 70.3388 94.4986 68.4144 94.0609C65.5868 93.4176 64.3133 88.5999 64.8859 86.2135C65.1705 85.0271 66.1007 84.5539 67.0562 83.9654C67.9874 83.6917 68.9505 83.5606 69.8765 83.2681C69.3488 83.2333 68.8338 83.2072 68.32 83.0734C67.6846 82.6157 66.5504 82.8194 65.6233 82.0916C63.2121 80.199 64.8319 75.0295 66.3503 73.1094C68.1612 70.8199 70.9897 72.6516 73.3077 72.3012C73.5031 72.4261 73.7255 72.5142 73.9368 72.6098C73.5106 72.1312 73.0544 71.6915 72.5763 71.265ZM71.048 81.148C71.016 82.4602 71.0544 84.5656 71.6386 85.7647C71.8306 86.5739 72.1394 87.355 72.4188 88.137C73.3022 89.3597 74.2656 90.6134 75.0663 91.8881C75.5111 91.5892 75.9518 91.2902 76.3765 90.9634C77.5061 90.1714 78.8044 89.3956 79.7855 88.4289C78.7846 87.3878 77.9991 86.4563 77.4421 85.1086C76.983 84.0444 76.7043 82.9555 76.7992 81.7909C75.334 81.4244 72.5568 81.0875 71.048 81.148Z" fill="black"/>
<path d="M86.0105 66.0759C87.781 65.7972 89.981 66.4121 91.6601 66.9847C91.1658 67.7616 90.5292 71.1697 90.3512 72.226C89.005 72.0367 87.7815 71.6313 86.4015 71.6049C86.4353 70.9241 86.1404 66.7496 86.0105 66.0759Z" fill="#FBB3AA"/>
<path d="M95.2351 84.3619C95.7302 84.3893 100.249 85.7481 100.651 85.9502C99.5045 88.8117 98.8217 89.2711 97.1826 91.597L94.8095 88.9818C94.3608 88.4933 93.9202 87.9484 93.3985 87.5378C94.1919 86.6433 94.7911 85.4637 95.2351 84.3619Z" fill="#FEFEFE"/>
<path d="M79.5054 67.5269C81.6029 66.7636 83.7427 65.9855 86.0106 66.0758C86.1405 66.7495 86.4354 70.9239 86.4016 71.6048C85.1675 71.6578 84.033 71.8591 82.8819 72.3109C82.5658 71.7639 82.1414 71.2475 81.7753 70.7312L79.5054 67.5269Z" fill="#FEFEFE"/>
<path d="M91.6603 66.9845C94.4062 68.1364 94.977 68.805 97.1844 70.3822C98.1431 71.8242 99.1812 73.1107 99.9776 74.6666C98.3401 75.3094 96.8146 76.6358 95.096 76.9893C94.5229 76.0159 93.9219 75.1354 93.1842 74.2806C92.3137 73.4681 91.3414 72.8775 90.3514 72.2259C90.5295 71.1696 91.166 67.7615 91.6603 66.9845Z" fill="#FEFEFE"/>
<path d="M93.1842 74.2804C94.6012 73.1251 95.846 71.6385 97.1845 70.382C98.1432 71.824 99.1813 73.1105 99.9777 74.6664C98.3402 75.3093 96.8147 76.6357 95.096 76.9892C94.523 76.0158 93.922 75.1352 93.1842 74.2804Z" fill="#FBB3AA"/>
<path d="M95.0961 76.9893C96.8148 76.6358 98.3402 75.3094 99.9778 74.6665C100.845 76.6087 101.252 78.3499 101.525 80.4488C101.344 82.3598 101.289 84.1042 100.651 85.9502C100.249 85.7482 95.7302 84.3893 95.2351 84.3619C95.512 83.2356 95.7262 82.1645 95.9005 81.016C95.8746 79.637 95.5734 78.2806 95.0961 76.9893Z" fill="#FEFEFE"/>
<path d="M95.2352 84.3619C95.512 83.2356 95.7262 82.1645 95.9005 81.0159C97.0908 80.3408 100.039 80.5938 101.525 80.4487C101.345 82.3598 101.289 84.1042 100.651 85.9502C100.25 85.7481 95.7303 84.3893 95.2352 84.3619Z" fill="#FBB3AA"/>
<path d="M86.2803 90.682C87.7002 90.5056 89.0005 90.268 90.323 89.7084C91.3866 89.069 92.4866 88.3865 93.398 87.5381C93.9198 87.9486 94.3603 88.4935 94.8091 88.9821L97.1821 91.5972L92.9413 94.5904C90.839 95.2696 88.5806 96.2953 86.3297 96.0576C85.992 95.2842 86.3832 91.9279 86.2803 90.682Z" fill="#FEFEFE"/>
<path d="M90.3236 89.7081C91.3872 89.0687 92.4872 88.3862 93.3986 87.5377C93.9204 87.9483 94.3609 88.4932 94.8097 88.9817L97.1827 91.5969L92.9418 94.5901C91.8945 93.1475 90.8717 91.4067 90.3236 89.7081Z" fill="#FBB3AA"/>
<path d="M71.048 81.1479C72.5567 81.0874 75.334 81.4243 76.7992 81.7908C76.7042 82.9554 76.983 84.0443 77.4421 85.1085C77.9991 86.4563 78.7845 87.3877 79.7855 88.4288C78.8044 89.3955 77.5061 90.1714 76.3765 90.9633C75.9518 91.2902 75.5111 91.5892 75.0663 91.888C74.2655 90.6134 73.3022 89.3596 72.4188 88.1369C72.1394 87.3549 71.8306 86.5739 71.6386 85.7647C71.0544 84.5655 71.016 82.4602 71.048 81.1479ZM71.6386 85.7647C71.8306 86.5739 72.1394 87.3549 72.4188 88.1369L72.6712 87.9588C74.1825 86.6873 72.4704 86.5005 71.6386 85.7647Z" fill="#FEFEFE"/>
<path d="M72.4187 88.1369L72.6711 87.9588C74.3255 86.883 75.7147 86.0584 77.442 85.1085C77.999 86.4563 78.7844 87.3877 79.7854 88.4288C78.8042 89.3955 77.506 90.1714 76.3763 90.9633C75.9517 91.2902 75.511 91.5892 75.0662 91.888C74.2654 90.6134 73.3021 89.3596 72.4187 88.1369Z" fill="#FBB3AA"/>
<path d="M75.7242 70.1957C76.9956 69.3238 78.2408 68.4101 79.5055 67.5269L81.7754 70.7312C82.1415 71.2475 82.566 71.7639 82.882 72.3109C81.4581 72.9287 80.3665 73.7916 79.2598 74.8674C78.5206 75.784 77.8936 76.6523 77.608 77.8113C76.7874 78.8943 76.6776 80.4781 76.7992 81.7908C75.334 81.4243 72.5568 81.0874 71.048 81.1479C71.046 79.3601 71.4816 77.5619 72.0992 75.8944C72.9942 73.2999 74.2528 72.3449 75.6569 70.2955L75.7242 70.1957Z" fill="#FEFEFE"/>
<path d="M75.7244 70.1956C76.9958 69.3238 78.241 68.4101 79.5057 67.5268L81.7756 70.7311C82.1417 71.2474 82.5661 71.7638 82.8822 72.3108C81.4583 72.9286 80.3667 73.7915 79.26 74.8673C78.4325 73.5281 76.8581 71.1967 75.7244 70.1956Z" fill="#FBB3AA"/>
<path d="M72.0992 75.8944C73.8205 76.4033 75.9899 77.0613 77.6081 77.8113C76.7875 78.8943 76.6777 80.4781 76.7993 81.7908C75.3341 81.4243 72.5569 81.0874 71.0481 81.1479C71.0461 79.3601 71.4817 77.5619 72.0992 75.8944Z" fill="#FBB3AA"/>
<path d="M79.2599 74.8673C80.3666 73.7915 81.4582 72.9286 82.8821 72.3108C84.0333 71.859 85.1678 71.6577 86.4019 71.6047C87.7819 71.6311 89.0053 72.0364 90.3515 72.2258C91.3415 72.8774 92.3138 73.4681 93.1843 74.2805C93.922 75.1353 94.523 76.0158 95.096 76.9892C95.5734 78.2806 95.8746 79.6369 95.9005 81.0159C95.7261 82.1645 95.5119 83.2355 95.2351 84.3619C94.7912 85.4637 94.1919 86.6433 93.3985 87.5378C92.4871 88.3863 91.3871 89.0687 90.3234 89.7082C89.001 90.2678 87.7006 90.5053 86.2807 90.6818C85.1447 90.5707 84.065 90.4303 82.9563 90.1518C81.7886 89.8079 80.7306 89.1852 79.7857 88.4287C78.7847 87.3876 77.9993 86.4562 77.4423 85.1084C76.9832 84.0442 76.7044 82.9553 76.7993 81.7908C76.6777 80.478 76.7876 78.8942 77.6082 77.8112C77.8938 76.6522 78.5207 75.784 79.2599 74.8673Z" fill="#C40000"/>
</g>
<defs>
<clipPath id="clip0_2027_432">
<rect width="140.232" height="140.232" fill="white" transform="translate(0.589355 81.2408) rotate(-35.214)"/>
</clipPath>
</defs>
</svg>
