<svg width="79" height="50" viewBox="0 0 79 50" fill="none" xmlns="http://www.w3.org/2000/svg">
<g>
<path d="M8.15633 4.92358C9.0612 5.00132 10.2073 4.92559 11.1432 4.92486L17.6091 4.92358C17.6065 6.33271 17.5795 7.74639 17.6091 9.15479C17.6877 10.0966 17.6589 11.851 17.6091 12.8185C17.5355 13.1314 17.4275 14.6677 17.812 14.7356L17.704 14.786C17.5021 15.3811 17.6072 17.5457 17.6091 18.3037C11.183 13.7349 6.54405 21.44 7.675 27.652C8.32454 31.2199 11.2264 34.9101 15.2204 34.1161C16.3322 33.8951 16.7313 33.3464 17.6091 33.0555C17.6127 33.4493 17.4286 35.7298 17.812 35.7575C17.8472 36.9176 17.8259 38.096 17.812 39.257L17.6728 39.2889C17.506 39.6057 17.6237 44.5404 17.6091 45.3031H8.15633C7.46315 41.0061 4.57084 37.5869 -0.000476241 37.3568C-0.080239 36.546 -0.00323151 35.6625 -0.00237384 34.8424L-0.000476241 12.2314C3.18002 12.25 6.32903 9.8515 7.49974 6.97869C7.77149 6.31172 7.92491 5.60515 8.15633 4.92358Z" fill="#FE6B68"/>
<path d="M69.9028 4.92346C70.5662 4.77346 70.4289 5.76306 70.6583 6.40886C71.9525 10.0539 74.8538 11.9364 78.557 12.2313V37.3567C74.3877 37.5054 70.8932 40.5851 70.5406 44.7968C70.528 44.9479 70.5468 45.1946 70.4395 45.303C69.2965 45.2492 68.1247 45.3008 66.9795 45.3012L60.0014 45.303C59.9441 44.9652 59.9926 44.5463 59.9946 44.201L60.0014 33.0554C59.5966 32.5795 59.0625 32.1486 58.6105 31.7098C58.4892 31.3744 57.3465 29.4618 57.1021 29.0494C56.4277 25.7094 56.6145 25.0271 57.1021 21.718C57.6111 21.0963 58.1403 19.9446 58.6105 19.2005C59.0638 18.7457 59.5275 18.3069 60.0014 17.874C59.8959 17.6067 60.001 14.6757 60.0012 14.2041L60.0014 4.92346H69.9028ZM60.9503 17.4008C60.6337 17.5527 60.303 17.6946 60.0014 17.874C59.5275 18.3069 59.0638 18.7457 58.6105 19.2005C58.1403 19.9446 57.6111 21.0963 57.1021 21.718C56.6145 25.0271 56.4277 25.7094 57.1021 29.0494C57.3465 29.4618 58.4892 31.3744 58.6105 31.7098C59.0625 32.1486 59.5966 32.5795 60.0014 33.0554C60.5102 33.3403 61.0123 33.6173 61.5404 33.8645C64.8782 34.8174 67.5691 33.2851 69.0987 30.2072C71.9954 24.3784 68.3824 14.8266 60.9503 17.4008Z" fill="black"/>
<path d="M60.0013 4.92358H69.9028C67.6743 8.2057 65.1285 11.4747 62.8203 14.7429C62.3832 15.3615 61.2004 16.8086 60.9502 17.401C60.6336 17.5528 60.303 17.6948 60.0013 17.8741C59.8958 17.6068 60.0009 14.6758 60.0011 14.2042L60.0013 4.92358Z" fill="#990000"/>
<path d="M60.0012 33.0554C60.51 33.3403 61.0122 33.6173 61.5403 33.8645C61.9773 34.6375 63.2697 36.0532 63.8647 36.8268L68.2085 42.4627C68.9049 43.3726 69.6213 44.5034 70.4394 45.303C69.2963 45.2492 68.1246 45.3009 66.9793 45.3012L60.0012 45.303C59.9439 44.9653 59.9925 44.5463 59.9945 44.201L60.0012 33.0554Z" fill="#990000"/>
<path d="M58.6106 4.92358H60.0015L60.0013 14.2042C60.0011 14.6758 59.896 17.6068 60.0015 17.8741C59.5276 18.307 59.0639 18.7458 58.6106 19.2006C58.1404 19.9447 57.6112 21.0964 57.1022 21.7181C56.6146 25.0272 56.4278 25.7095 57.1022 29.0495C57.3466 29.4619 58.4893 31.3745 58.6106 31.7099C59.0626 32.1488 59.5968 32.5796 60.0015 33.0555L59.9947 44.2011C59.9927 44.5464 59.9442 44.9654 60.0015 45.3031H58.6106C57.5026 45.3197 56.33 45.3989 55.2283 45.3031H17.6092C17.6238 44.5404 17.5061 39.6057 17.6728 39.2889L17.8121 39.257C17.826 38.096 17.8473 36.9176 17.8121 35.7575C17.4287 35.7298 17.6128 33.4493 17.6092 33.0555C16.7314 33.3464 16.3323 33.8951 15.2205 34.1161C11.2265 34.9101 8.32464 31.2199 7.67509 27.652C6.54414 21.44 11.1831 13.7349 17.6092 18.3037C17.6073 17.5457 17.5022 15.3811 17.7041 14.786L17.8121 14.7356C17.4276 14.6677 17.5356 13.1314 17.6092 12.8185C17.659 11.851 17.6878 10.0966 17.6092 9.15479C17.5796 7.74639 17.6066 6.33271 17.6092 4.92358H57.1022C57.6053 4.92961 58.1075 4.93253 58.6106 4.92358ZM17.6092 33.0555C17.5433 32.1163 17.6046 31.1652 17.6099 30.2229L17.6092 32.3002C19.6208 32.3004 36.5199 32.4035 36.9794 32.2093C37.2854 32.0801 37.2002 29.1216 37.0219 28.8039C36.4878 28.6086 31.6332 28.7121 30.7604 28.7121L17.6092 28.713C17.6205 28.8674 17.6194 29.0108 17.6081 29.1652C17.5143 28.773 17.5796 25.3424 17.5911 24.7995L17.6327 24.8239L17.607 24.7553C17.6544 24.9128 17.5831 25.0714 17.6703 25.1984C18.044 25.3064 22.4453 25.2261 23.2978 25.2261L42.1977 25.2274V21.7181C41.3148 21.7628 40.413 21.7188 39.5281 21.7185L17.6092 21.7181C17.628 22.0739 17.6334 22.4166 17.6059 22.7721C17.5677 22.2526 17.6048 21.727 17.607 21.2064L17.6092 18.3037C11.1831 13.7349 6.54414 21.44 7.67509 27.652C8.32464 31.2199 11.2265 34.9101 15.2205 34.1161C16.3323 33.8951 16.7314 33.3464 17.6092 33.0555ZM17.6092 9.15479C17.6878 10.0966 17.659 11.851 17.6092 12.8185H46.9497V9.15479H17.6092ZM17.8121 14.7356L17.7041 14.786C17.5022 15.3811 17.6073 17.5457 17.6092 18.3037C20.3455 18.2513 23.092 18.3035 25.8298 18.3035L42.1977 18.3037V14.7356H17.8121ZM17.8121 35.7575C17.8473 36.9176 17.826 38.096 17.8121 39.257C18.1783 39.3336 20.2075 39.2577 20.7186 39.2575L29.6088 39.2572C30.1218 39.2572 32.6435 39.323 32.9269 39.2197C33.452 39.0283 33.2785 36.2572 33.1004 35.8812C32.6064 35.6037 30.0628 35.7572 29.4327 35.757L19.8707 35.7572C19.1867 35.757 18.4944 35.7205 17.8121 35.7575ZM52.7812 40.9504C52.7776 41.7692 52.7254 42.6201 52.7812 43.4358C53.5639 43.4448 54.3468 43.4385 55.1292 43.4358C55.1314 42.6095 55.1582 41.7756 55.1292 40.9504C54.3471 40.9502 53.5632 40.9378 52.7812 40.9504ZM52.7812 26.23C52.7811 27.0564 52.7615 27.8873 52.7812 28.713C53.5586 28.7121 54.3542 28.6739 55.1292 28.713C55.1203 27.8854 55.1267 27.0577 55.1292 26.23H52.7812ZM52.7812 31.0971V33.5301H55.1292C55.1473 32.7196 55.134 31.9077 55.1292 31.0971C54.3471 31.0966 53.5632 31.0845 52.7812 31.0971ZM52.7812 36.0017V38.4524H55.1292C55.1318 37.6393 55.1659 36.8134 55.1292 36.0017H52.7812ZM52.7812 11.4057V13.7995H55.1292C55.138 13.0042 55.1524 12.2004 55.1292 11.4057H52.7812ZM52.7812 16.3219V18.7497H55.1292V16.3219C54.3469 16.3214 53.5635 16.3126 52.7812 16.3219ZM52.7812 21.2484V23.6767H55.1292C55.098 22.8637 55.0745 22.0614 55.1292 21.2484H52.7812ZM52.7812 6.51263V8.89986H55.1292V6.51263H52.7812Z" fill="#E90000"/>
<path d="M57.1022 29.0496C57.3465 29.462 58.4892 31.3746 58.6106 31.71C59.0626 32.1488 59.5967 32.5797 60.0014 33.0556L59.9947 44.2012C59.9927 44.5465 59.9441 44.9654 60.0014 45.3032H58.6106C57.5025 45.3198 56.3299 45.399 55.2283 45.3032C55.8513 45.2809 56.4786 45.2986 57.1022 45.3032L57.1031 33.5815C57.1031 33.2049 57.0281 29.1742 57.1022 29.0496Z" fill="#FE6B68"/>
<path d="M58.6105 31.7097C59.0625 32.1486 59.5966 32.5794 60.0014 33.0553L59.9946 44.201C59.9926 44.5462 59.9441 44.9652 60.0014 45.303H58.6105L58.6107 34.9683C58.6103 34.4064 58.5289 32.0364 58.6105 31.7097Z" fill="#E90000"/>
<path d="M58.6104 4.92358H60.0013L60.0011 14.2042C60.0009 14.6758 59.8958 17.6068 60.0013 17.8741C59.5274 18.307 59.0637 18.7458 58.6104 19.2006C58.1401 19.9447 57.6109 21.0964 57.102 21.7181C57.019 21.5637 57.1033 19.3327 57.1033 19.0358L57.1011 6.55734C57.0989 6.01629 57.0602 5.46227 57.102 4.92358C57.6051 4.92961 58.1073 4.93253 58.6104 4.92358Z" fill="#FE6B68"/>
<path d="M58.6105 4.92358H60.0013L60.0011 14.2042C60.001 14.6758 59.8959 17.6068 60.0013 17.8741C59.5274 18.307 59.0637 18.7458 58.6105 19.2006C58.5415 18.7657 58.598 18.2552 58.6019 17.8132L58.6105 4.92358Z" fill="#E90000"/>
</g>
</svg>
