<svg width="100" height="55" viewBox="0 0 100 55" fill="none" xmlns="http://www.w3.org/2000/svg">
<path d="M62.8999 35.1021C63.9005 35.0327 64.7608 34.9307 65.731 34.5981C65.62 35.1698 65.4138 35.6346 65.2258 36.1749C64.6073 35.6987 63.6395 35.3815 62.8999 35.1021Z" fill="black"/>
<path d="M30.8213 34.5981C31.7835 34.8915 32.7611 35.1059 33.7717 35.1021C32.92 35.4383 32.1116 35.8071 31.2763 36.1749C31.0076 35.6243 30.8434 35.2245 30.8213 34.5981Z" fill="black"/>
<path d="M57.8018 37.4993L58.7448 37.6967C60.6547 37.8751 62.6665 38.5094 64.37 39.3823C63.3042 40.3916 62.2027 41.3386 61.0969 42.3019C60.0677 40.8153 59.1226 39.2457 58.0355 37.804L57.8018 37.4993Z" fill="#E90000"/>
<path d="M32.4839 39.5729C34.2309 38.4143 36.8359 37.7082 38.9187 37.697C38.2557 38.6814 36.0772 41.657 36.0848 42.8337C34.8447 41.7943 33.6492 40.6954 32.4839 39.5729Z" fill="#E90000"/>
<path d="M39.4446 37.4993C41.656 40.3718 43.626 43.1109 46.5389 45.3535C48.412 46.7954 48.8087 46.5832 50.6455 45.112C52.9307 43.2816 55.0011 41.0773 56.7407 38.7177C56.976 38.3987 57.3833 37.5905 57.8015 37.4993L58.0352 37.804C59.1224 39.2457 60.0675 40.8153 61.0966 42.3019C60.014 43.3351 58.791 44.237 57.641 45.1955L53.1711 48.8484C52.6408 49.2761 52.1298 49.738 51.5895 50.1513C50.5409 50.9756 49.4958 51.8834 48.4198 52.6607C47.3049 52.0757 46.344 50.7439 45.0839 50.1513C44.4014 49.3187 43.3388 48.621 42.4908 47.9507L38.2447 44.5927C37.5218 44.0133 36.7727 43.4529 36.0842 42.8333C36.0766 41.6567 38.2551 38.6811 38.9181 37.6967C39.0713 37.6125 39.2788 37.5654 39.4446 37.4993Z" fill="#990000"/>
<path d="M48.4201 46.4219C49.2496 47.5566 50.3993 49.3635 51.5898 50.1516C50.5412 50.9758 49.4961 51.8837 48.4201 52.661C47.3052 52.0759 46.3443 50.7441 45.0842 50.1516C46.0791 48.857 47.2609 47.5758 48.4201 46.4219Z" fill="#E90000"/>
<path d="M54.5057 2.7394C54.7508 2.50644 54.9266 2.15668 55.1369 1.88755C56.7425 -0.166293 58.3221 0.818955 60.134 0.658346C61.3807 0.912357 63.0942 0.685322 64.6849 0.980655C66.7642 0.124284 69.0469 0.422736 70.1627 2.53903C70.3162 2.83015 70.4334 3.15152 70.6034 3.43126C75.1824 6.23801 77.6107 10.2931 78.1489 15.7306C78.8513 22.8284 74.414 29.4408 69.6733 34.3255C68.788 35.2375 67.8189 36.0791 66.9813 37.0321C66.4668 36.6406 65.872 36.2813 65.2258 36.175C65.4138 35.6347 65.62 35.1699 65.731 34.5982C66.9166 34.13 69.0548 33.2404 69.5204 32.0065C69.8452 31.1458 69.4068 30.111 68.5105 29.8227C67.3645 29.4539 66.7843 30.4636 65.8872 30.9153C64.4415 31.6276 62.8231 31.82 61.2435 31.506C60.9017 31.7077 60.5708 32.7422 60.3548 33.1297C59.8632 34.0115 57.9457 36.7758 57.7388 37.4329L57.7586 37.4879L57.8018 37.4996C57.3836 37.5908 56.9763 38.399 56.741 38.7181C55.0014 41.0776 52.931 43.282 50.6458 45.1123C48.8089 46.5835 48.4123 46.7957 46.5392 45.3538C43.6263 43.1113 41.6562 40.3722 39.4448 37.4996C38.0957 35.6008 36.8068 33.59 35.7642 31.506C33.3704 31.4944 33.5207 31.8783 30.8209 30.9153C30.1804 30.3935 29.4349 29.5872 28.5456 29.6627C27.6666 29.7372 26.9181 30.5292 27.0101 31.4317C27.1475 32.7827 29.6196 34.2991 30.8209 34.5982C30.8431 35.2246 31.0073 35.6244 31.2759 36.175C30.803 36.441 30.3496 36.7391 29.8933 37.0321C23.8767 31.2173 17.0829 23.3551 18.7983 14.3689C21.2869 1.33228 35.6712 -3.73848 45.9726 4.94909C46.8255 5.6684 47.6767 6.47316 48.3044 7.40157C48.7581 7.01704 49.1091 6.52352 49.5399 6.11452C51.1487 4.58764 52.5061 3.67857 54.5057 2.7394ZM66.9813 15.768C63.4889 15.8865 62.4098 19.2166 64.9531 21.7812C66.448 23.117 67.9535 23.5915 69.2313 24.6216C69.4554 24.4524 69.6642 24.2935 69.9232 24.1805C71.8666 23.1431 74.5659 21.8925 74.9149 19.4354C75.2029 17.4073 73.8251 16.0188 71.8895 15.768C70.8125 15.9213 69.8014 16.2165 69.3874 17.352C68.6942 16.1856 68.1999 16.0362 67.0293 15.7788L66.9813 15.768ZM38.6253 5.44822C37.8911 3.83653 36.659 3.73049 35.0958 4.23119C34.6897 4.64861 34.182 5.282 34.1834 5.89512C34.1861 7.01112 37.6778 10.2004 38.7612 10.5113C39.8796 9.17871 41.9422 8.37052 42.889 6.47347C43.8702 4.50765 40.0673 2.42177 38.6253 5.44822Z" fill="#E90000"/>
<path d="M34.4247 26.8367C34.4493 28.452 34.9627 30.103 35.7646 31.5059C33.3708 31.4943 33.5211 31.8782 30.8213 30.9152C30.9579 29.0429 32.7062 27.3294 34.4247 26.8367Z" fill="black"/>
<path d="M62.3261 26.3506C63.9838 27.2668 65.7941 28.8787 65.8872 30.915C64.4414 31.6273 62.823 31.8197 61.2435 31.5057L61.2271 31.4915C61.1939 31.2986 61.7187 30.2415 61.8135 29.9496C62.2015 28.7538 62.3587 27.6074 62.3261 26.3506Z" fill="#990000"/>
<path d="M64.9531 21.7808C66.448 23.1166 67.9535 23.5911 69.2314 24.6212C69.4555 24.452 69.6643 24.2931 69.9233 24.1801C70.038 26.3534 67.3697 27.7347 65.5394 28.0482C64.0561 26.7043 63.0584 22.8595 64.9531 21.7808Z" fill="#990000"/>
<path d="M66.9814 15.768C63.1722 13.1006 67.4854 9.70928 69.3876 12.3832C71.1655 9.49706 75.6873 13.5177 71.8896 15.768C70.8126 15.9212 69.8016 16.2164 69.3876 17.3519C68.6943 16.1855 68.2 16.0362 67.0294 15.7787L66.9814 15.768Z" fill="black"/>
<path d="M38.761 10.5113C38.436 11.0542 33.178 15.7923 32.3647 16.4356C31.099 17.4366 30.3391 16.0178 29.3225 15.1092L26.4624 12.5265C25.7258 11.8577 24.9095 11.1688 24.2893 10.3901C21.1951 6.50448 25.2212 2.2705 29.3265 4.62708C30.4296 5.26031 31.2158 6.39144 31.5451 7.60629C31.8657 6.36306 33.716 4.08132 35.0955 4.23117C34.6895 4.6486 34.1817 5.28199 34.1831 5.89511C34.1858 7.0111 37.6776 10.2004 38.761 10.5113Z" fill="#FFA2A2"/>
<path d="M28.8312 9.0076C30.6874 8.92231 29.634 11.6104 31.7356 11.12C32.8078 10.8697 32.5469 10.1679 33.0061 9.45434C33.7108 8.35956 35.8269 9.45949 34.4243 11.4537C34.1522 12.142 33.4527 12.6408 32.7855 12.9081C29.2911 14.3086 26.4652 9.79537 28.8312 9.0076Z" fill="black"/>
<path d="M54.5057 2.7394C54.7509 2.50644 54.9266 2.15668 55.1369 1.88755C56.7426 -0.166293 58.3221 0.818955 60.1341 0.658346C61.3807 0.912357 63.0942 0.685322 64.6849 0.980655C66.7642 0.124284 69.0469 0.422736 70.1627 2.53903C70.3162 2.83015 70.4334 3.15152 70.6034 3.43126C70.5145 3.74593 70.6018 4.32958 70.5349 4.71582C70.135 7.02297 64.8006 11.3006 62.5382 12.8691C59.6419 10.4324 53.5432 7.02546 54.5057 2.7394Z" fill="#FFA2A2"/>
<path d="M60.134 0.658203C61.3806 0.912214 63.0942 0.685179 64.6848 0.980512C63.4698 1.76593 62.8487 2.4868 62.326 3.84106C61.8166 2.7522 61.6278 2.08996 60.64 1.30033C60.4781 1.1709 59.8984 0.951665 59.9492 0.71122L60.134 0.658203Z" fill="#E90000"/>
<path d="M65.226 5.44787C65.4882 5.34496 65.7692 5.42932 66.0221 5.51617C65.8079 9.1188 61.8747 10.5771 59.7027 7.80866C59.4398 7.41931 58.7296 5.92409 59.0932 5.47999C60.8215 4.97416 61.0993 6.7449 62.4088 7.15157C63.7306 6.8472 63.7306 5.56482 65.226 5.44787Z" fill="black"/>
<path d="M35.7644 22.7326C37.4586 20.0358 41.3795 19.387 44.0013 21.0466C45.715 22.1312 46.8868 24.2074 48.3045 25.6719C49.8447 23.5032 51.991 20.6758 54.6838 20.2087C58.6736 19.5167 61.7451 22.5809 62.3263 26.3509C62.3589 27.6077 62.2017 28.7541 61.8137 29.9499C61.7189 30.2418 61.1941 31.2988 61.2273 31.4917L61.2437 31.5059C60.9018 31.7077 60.571 32.7421 60.355 33.1296C59.8634 34.0114 57.9459 36.7758 57.739 37.4328L57.7588 37.4879L57.8019 37.4996C57.3837 37.5908 56.9765 38.399 56.7412 38.718C55.0016 41.0776 52.9311 43.282 50.646 45.1123C48.8091 46.5835 48.4124 46.7957 46.5394 45.3538C43.6264 43.1112 41.6564 40.3721 39.445 37.4996C38.0959 35.6008 36.807 33.5899 35.7644 31.5059C34.9625 30.103 34.4491 28.452 34.4245 26.8367C34.4153 26.0487 34.5521 25.3814 34.7407 24.6216C35.0325 23.9729 35.3107 23.2862 35.7644 22.7326Z" fill="#FFA2A2"/>
<path d="M41.8962 22.7326C44.889 22.5678 45.4951 26.6639 42.5456 27.3192C39.1668 27.5481 38.8407 23.1505 41.8962 22.7326Z" fill="black"/>
<path d="M54.3173 22.7325C57.3653 22.3692 58.1896 26.7527 55.0555 27.3191C51.8352 27.5924 51.3297 23.2374 54.3173 22.7325Z" fill="black"/>
<path d="M42.546 33.0586H45.0845C44.974 33.8788 45.2626 34.5546 45.806 35.178C47.8788 37.5558 51.5231 36.0253 51.715 33.0586C52.531 33.0959 53.3626 33.0612 54.18 33.0586C54.1616 33.7788 54.0407 34.4224 53.8065 35.1019C51.3469 41.3914 42.0565 38.831 42.546 33.0586Z" fill="black"/>
<path d="M95.9127 24.5358V27.5571C93.9416 27.5571 92.5618 27.9599 91.7734 28.7656C90.9965 29.5597 90.6081 30.8603 90.6081 32.6674V37.0526C90.6081 38.9977 90.3588 40.5918 89.8602 41.8348C89.3732 43.0779 88.6543 44.0447 87.7036 44.7353C86.7528 45.4259 85.5933 45.9035 84.2251 46.1682C82.8569 46.4445 81.3032 46.5826 79.564 46.5826V41.8003C80.9322 41.8003 81.9815 41.6104 82.712 41.2306C83.4425 40.8508 83.941 40.2753 84.2077 39.5041C84.486 38.733 84.6251 37.7489 84.6251 36.5519V30.8891C84.6251 30.0144 84.7759 29.1914 85.0773 28.4203C85.3788 27.6491 85.9296 26.9758 86.7296 26.4003C87.5296 25.8133 88.6659 25.3587 90.1385 25.0364C91.6226 24.7027 93.5474 24.5358 95.9127 24.5358ZM79.564 2.71338C81.3032 2.71338 82.8569 2.85149 84.2251 3.12773C85.5933 3.39245 86.7528 3.8701 87.7036 4.56068C88.6543 5.25127 89.3732 6.21808 89.8602 7.46113C90.3588 8.70417 90.6081 10.2983 90.6081 12.2434V16.6459C90.6081 18.4529 90.9965 19.7592 91.7734 20.5649C92.5618 21.3591 93.9416 21.7562 95.9127 21.7562V24.7775C93.5474 24.7775 91.6226 24.6163 90.1385 24.2941C88.6659 23.9603 87.5296 23.5056 86.7296 22.9302C85.9296 22.3432 85.3788 21.6641 85.0773 20.8929C84.7759 20.1218 84.6251 19.2931 84.6251 18.4068V12.7441C84.6251 11.5471 84.486 10.563 84.2077 9.79184C83.941 9.02069 83.4425 8.45096 82.712 8.08265C81.9815 7.70283 80.9322 7.51292 79.564 7.51292V2.71338ZM95.9127 21.7562V27.5571H90.3994V21.7562H95.9127Z" fill="black"/>
<path d="M1.63515 26.4474V29.3561C3.54057 29.3561 4.87437 29.7439 5.63654 30.5195C6.3875 31.2841 6.76298 32.5362 6.76298 34.2759V38.4977C6.76298 40.3703 7.00396 41.905 7.48592 43.1017C7.95667 44.2985 8.65159 45.2293 9.57068 45.8941C10.4898 46.5589 11.6106 47.0188 12.9332 47.2737C14.2558 47.5396 15.7577 47.6726 17.439 47.6726V43.0685C16.1164 43.0685 15.102 42.8857 14.3959 42.52C13.6898 42.1543 13.2078 41.6003 12.95 40.8579C12.681 40.1155 12.5465 39.1681 12.5465 38.0157V32.5639C12.5465 31.7218 12.4008 30.9295 12.1094 30.1871C11.818 29.4447 11.2856 28.7965 10.5122 28.2424C9.73881 27.6773 8.64039 27.2396 7.21692 26.9294C5.78225 26.608 3.92166 26.4474 1.63515 26.4474ZM17.439 5.43823C15.7577 5.43823 14.2558 5.5712 12.9332 5.83714C11.6106 6.092 10.4898 6.55185 9.57068 7.21669C8.65159 7.88154 7.95667 8.81232 7.48592 10.009C7.00396 11.2058 6.76298 12.7405 6.76298 14.6131V18.8515C6.76298 20.5912 6.3875 21.8488 5.63654 22.6245C4.87437 23.3891 3.54057 23.7714 1.63515 23.7714V26.6801C3.92166 26.6801 5.78225 26.5249 7.21692 26.2147C8.64039 25.8933 9.73881 25.4556 10.5122 24.9016C11.2856 24.3365 11.818 23.6827 12.1094 22.9403C12.4008 22.1979 12.5465 21.4001 12.5465 20.5469V15.0951C12.5465 13.9427 12.681 12.9953 12.95 12.2529C13.2078 11.5105 13.6898 10.962 14.3959 10.6074C15.102 10.2417 16.1164 10.0589 17.439 10.0589V5.43823ZM1.63515 23.7714V29.3561H6.96473V23.7714H1.63515Z" fill="black"/>
</svg>
