<svg width="64" height="66" viewBox="0 0 64 66" fill="none" xmlns="http://www.w3.org/2000/svg">
<g clip-path="url(#clip0_2027_414)">
<ellipse cx="31.6829" cy="34.3732" rx="19.634" ry="18.0966" transform="rotate(-6 31.6829 34.3732)" fill="#FFF5F5"/>
<path d="M30.0846 31.7667C30.4668 31.7013 31.1806 31.7798 31.0973 32.3116C31.0135 32.8471 30.4295 32.6493 30.1231 32.8921C29.1503 33.6633 31.3968 35.8874 33.5181 33.891C34.1166 33.3276 34.5812 33.7027 34.4538 34.4169C33.4017 36.1627 29.8161 36.2327 29.0501 34.1581C28.6453 33.0621 28.9695 32.1464 30.0846 31.7667Z" fill="black"/>
<path d="M21.7933 29.8142C25.2373 29.1581 24.6762 33.825 23.0798 34.5125C20.4188 35.4557 19.5267 30.5934 21.7933 29.8142Z" fill="black"/>
<path d="M40.2286 27.8766C43.0366 27.323 44.3353 30.9591 41.9947 32.5244C38.6978 33.3683 38.185 28.6371 40.2286 27.8766Z" fill="black"/>
<path d="M26.6534 38.6132C27.2927 38.6278 27.3061 39.0973 27.5366 39.5824C29.3167 43.331 35.2583 43.0659 37.1605 39.5572C37.4489 39.0252 37.7022 37.5955 37.8847 37.4887C38.792 36.9582 38.6883 38.2155 38.5891 38.7006C37.2473 44.0903 29.2151 44.9799 26.6286 40.033C26.382 39.5614 26.0105 38.9189 26.6534 38.6132Z" fill="black"/>
<path d="M21.8225 50.0015C22.5367 50.304 23.2144 50.6887 23.9345 50.9814C30.7372 53.7454 39.4121 52.5726 44.9306 47.6721C45.4877 47.1775 45.9855 46.6086 46.603 46.1855C43.7174 49.4565 42.7702 49.9634 39.0933 51.7538C39.2335 52.7424 39.3046 53.752 39.4078 54.7458C38.6705 54.8302 38.0091 55.2293 37.3228 55.4965C35.3055 56.2822 32.9476 56.4989 30.8249 56.1401C30.3051 56.0523 29.7384 55.8191 29.2193 55.8166L28.9048 52.8247C26.4071 52.3101 23.9224 51.4802 21.8225 50.0015Z" fill="#FFB0B0"/>
<path d="M51.7599 25.7268C52.6314 25.6163 53.5338 25.6428 54.3715 25.9369C54.4539 26.0066 54.536 26.0512 54.6347 26.0961C59.3147 28.2245 58.5296 35.1423 53.412 36.8371C53.3688 36.8514 53.356 36.8533 53.3162 36.8615C52.5478 36.9997 51.8024 37.0651 51.0234 37.1025C51.2909 35.9199 51.274 34.7912 51.3011 33.5934C51.2779 33.045 51.188 32.4849 51.1293 31.9385L50.7958 28.786C50.7284 28.235 50.6791 27.6805 50.6216 27.1283C51.1727 27.085 51.7249 27.0127 52.2749 26.9545C52.0746 26.5544 51.9131 26.1461 51.7599 25.7268Z" fill="#FEBEBB"/>
<path d="M50.7957 28.7859C51.8047 28.6828 52.7135 28.5439 53.5717 29.219C56.2311 31.311 52.6931 34.5437 51.3404 33.7418L51.3009 33.5933C51.2777 33.0449 51.1878 32.4848 51.1291 31.9384L50.7957 28.7859Z" fill="#E70000"/>
<path d="M11.4694 29.7422L11.6911 29.7189C12.084 29.991 12.6521 30.1334 13.1069 30.2739C12.9012 31.2115 12.8347 32.1303 12.7605 33.0841C12.6631 34.7094 12.9025 36.2758 13.0551 37.888C13.5585 38.7593 13.3848 39.9509 14.2311 40.9695C13.6256 41.2027 12.0002 41.3652 11.8472 41.5113C11.5797 41.3257 11.1299 41.2802 10.8113 41.2019C8.17518 40.5539 6.40454 38.4063 6.26285 35.6699C6.13795 33.2562 7.13568 32.3682 8.51036 30.8157L8.567 30.7511C9.53292 30.1688 10.3341 29.8159 11.4694 29.7422Z" fill="#FEBEBB"/>
<path d="M13.055 37.888C12.8704 38.0322 12.3288 38.0442 12.0882 38.045C8.56821 38.0551 8.69275 32.8124 12.203 32.9112C12.4064 32.9171 12.6187 32.931 12.7604 33.0841C12.663 34.7094 12.9024 36.2758 13.055 37.888Z" fill="#E70000"/>
<path d="M11.8473 41.5114C12.0003 41.3653 13.6256 41.2027 14.2311 40.9695C14.6929 43.0317 16.9559 45.862 18.4743 47.3192C19.0476 47.8693 19.7743 48.3217 20.2541 48.955C20.4056 50.6559 19.8151 53.4504 19.0723 54.9656C15.1281 56.797 8.69956 56.1472 5.62825 52.8302C9.35645 50.1774 12.4623 46.4541 11.8473 41.5114Z" fill="black"/>
<path d="M51.0233 37.1025C51.8023 37.0651 52.5477 36.9997 53.3161 36.8615C53.8749 41.7578 57.2546 45.4671 61.948 46.9107C59.5539 50.7066 53.4954 53.1294 49.2212 51.9518C47.9341 50.2694 47.0396 47.9627 46.8488 45.869C47.2139 45.211 47.7817 44.6565 48.1932 44.0176C49.6856 41.6996 50.4234 39.7756 51.0233 37.1025Z" fill="black"/>
<path d="M43.8106 8.26627C44.0483 6.06197 44.8238 3.34879 46.6221 1.90486C50.6286 -1.312 56.0269 8.12194 55.6287 11.3427C55.2101 14.7302 51.0176 13.5818 48.852 12.9047C51.8376 16.9695 53.8351 20.7562 54.3715 25.9368C53.5338 25.6428 52.6314 25.6162 51.7599 25.7267C49.7375 20.3421 48.0111 16.1893 42.8258 13.1823C38.8332 17.7761 36.1598 15.4208 35.8232 10.2873C35.2153 10.2536 34.6107 10.1509 34.0018 10.1138C25.7671 9.61248 17.4805 13.0211 13.5372 20.6472C12.3023 23.0354 11.0552 27.0543 11.4694 29.7422C10.3341 29.8159 9.53293 30.1689 8.56701 30.7511C7.71683 24.5145 9.90828 17.6006 14.15 13.0034C19.3349 7.38367 27.5956 5.07337 35.0813 6.01553C35.6798 6.09083 36.3615 6.27242 36.9526 6.28872C37.3493 6.29969 37.7366 6.11474 38.1347 6.10928C39.5012 6.0906 41.9386 7.53813 42.9217 8.50401C43.1954 8.64768 43.6032 8.46459 43.8106 8.26627Z" fill="#E70000"/>
<path d="M43.8105 8.26628C46.3528 7.53599 47.4148 11.3626 45.0088 11.8333C43.072 12.2123 42.1056 10.0166 42.9216 8.50403C43.1953 8.6477 43.6031 8.4646 43.8105 8.26628Z" fill="#FF6969"/>
<path d="M11.4693 29.7421C11.0552 27.0542 12.3022 23.0353 13.5371 20.647C17.4804 13.0209 25.767 9.61234 34.0017 10.1137C34.6106 10.1507 35.2152 10.2534 35.8231 10.2872C36.1597 15.4206 38.8332 17.776 42.8257 13.1821C48.011 16.1891 49.7374 20.3419 51.7598 25.7266C51.9131 26.146 52.0745 26.5542 52.2749 26.9543C51.7248 27.0125 51.1726 27.0848 50.6215 27.1281C44.8116 27.7985 33.7629 23.094 29.691 19.5843C25.4104 24.959 18.0838 27.7897 11.691 29.7187L11.4693 29.7421Z" fill="black"/>
<path d="M29.2194 55.8167C29.7385 55.8192 30.3052 56.0524 30.825 56.1402C32.9477 56.499 35.3056 56.2823 37.3229 55.4966C38.0092 55.2294 38.6705 54.8303 39.4079 54.7459C39.4288 55.1753 39.4741 55.5922 39.5415 56.0167C40.4443 56.0764 41.3983 56.0646 42.3064 56.0623C42.1374 56.526 42.0864 57.0631 41.9445 57.5423C39.8622 64.5748 29.793 64.7756 26.7322 58.4612C26.619 58.2275 26.5673 57.9213 26.376 57.7366C27.3362 57.3767 28.3393 57.2072 29.353 57.0876C29.2989 56.6652 29.2616 56.2404 29.2194 55.8167Z" fill="#FFE9E8"/>
</g>
<defs>
<clipPath id="clip0_2027_414">
<rect width="56.5739" height="60" fill="white" transform="translate(0.771729 6.2644) rotate(-6)"/>
</clipPath>
</defs>
</svg>
